<mxfile host="app.diagrams.net" modified="2021-11-30T07:24:57.511Z" agent="5.0 (Windows)" etag="jiNBqb9xcyMfoFR8HT3V" version="15.8.7" type="github">
  <diagram id="mhn2GZsr_PT5QV3XBlGk" name="Page-1">
    <mxGraphModel dx="1422" dy="752" grid="1" gridSize="10" guides="1" tooltips="1" connect="1" arrows="1" fold="1" page="1" pageScale="1" pageWidth="827" pageHeight="1169" math="0" shadow="0">
      <root>
        <mxCell id="0" />
        <mxCell id="1" parent="0" />
        <mxCell id="LX06uXPOczmbumngmtLN-41" value="&lt;p style=&quot;margin: 0px ; margin-top: 4px ; text-align: center&quot;&gt;&lt;b&gt;Person&lt;/b&gt;&lt;/p&gt;&lt;hr size=&quot;1&quot;&gt;&lt;p style=&quot;margin: 0px ; margin-left: 4px&quot;&gt;- name: string&lt;/p&gt;&lt;hr size=&quot;1&quot;&gt;&lt;p style=&quot;margin: 0px ; margin-left: 4px&quot;&gt;+ getName(): string&lt;/p&gt;&lt;p style=&quot;margin: 0px ; margin-left: 4px&quot;&gt;&lt;br&gt;&lt;/p&gt;&lt;p style=&quot;margin: 0px ; margin-left: 4px&quot;&gt;+ greet(): void&lt;/p&gt;&lt;p style=&quot;margin: 0px ; margin-left: 4px&quot;&gt;&lt;br&gt;&lt;/p&gt;" style="verticalAlign=top;align=left;overflow=fill;fontSize=12;fontFamily=Helvetica;html=1;" vertex="1" parent="1">
          <mxGeometry x="507" y="30" width="240" height="110" as="geometry" />
        </mxCell>
        <mxCell id="LX06uXPOczmbumngmtLN-42" style="edgeStyle=none;html=1;" edge="1" parent="1" source="LX06uXPOczmbumngmtLN-43" target="LX06uXPOczmbumngmtLN-41">
          <mxGeometry relative="1" as="geometry" />
        </mxCell>
        <mxCell id="LX06uXPOczmbumngmtLN-43" value="&lt;p style=&quot;margin: 0px ; margin-top: 4px ; text-align: center&quot;&gt;&lt;b&gt;Professor&lt;/b&gt;&lt;/p&gt;&lt;hr size=&quot;1&quot;&gt;&lt;p style=&quot;margin: 0px ; margin-left: 4px&quot;&gt;- name: string&lt;/p&gt;&lt;p style=&quot;margin: 0px ; margin-left: 4px&quot;&gt;&lt;br&gt;&lt;/p&gt;&lt;p style=&quot;margin: 0px ; margin-left: 4px&quot;&gt;- 有沒有料: boolean&lt;/p&gt;&lt;p style=&quot;margin: 0px ; margin-left: 4px&quot;&gt;&lt;br&gt;&lt;/p&gt;&lt;p style=&quot;margin: 0px ; margin-left: 4px&quot;&gt;# 負責科目: string&lt;/p&gt;&lt;hr size=&quot;1&quot;&gt;&lt;p style=&quot;margin: 0px 0px 0px 4px&quot;&gt;+ getName(): string&lt;/p&gt;&lt;div&gt;&lt;br&gt;&lt;/div&gt;&lt;div&gt;&amp;nbsp;+ get有沒有料(): boolean&lt;br&gt;&lt;/div&gt;&lt;div&gt;&lt;br&gt;&lt;/div&gt;&lt;p style=&quot;margin: 0px ; margin-left: 4px&quot;&gt;+ greet(): void&lt;/p&gt;&lt;p style=&quot;margin: 0px ; margin-left: 4px&quot;&gt;&lt;br&gt;&lt;/p&gt;&lt;p style=&quot;margin: 0px ; margin-left: 4px&quot;&gt;+ greet(問候語: string): void&lt;/p&gt;&lt;p style=&quot;margin: 0px ; margin-left: 4px&quot;&gt;&lt;br&gt;&lt;/p&gt;&lt;p style=&quot;margin: 0px ; margin-left: 4px&quot;&gt;+ 點名(): void&lt;/p&gt;&lt;p style=&quot;margin: 0px ; margin-left: 4px&quot;&gt;&lt;br&gt;&lt;/p&gt;&lt;p style=&quot;margin: 0px ; margin-left: 4px&quot;&gt;+ 寫黑板( words: string[]): void&lt;/p&gt;&lt;p style=&quot;margin: 0px ; margin-left: 4px&quot;&gt;&lt;br&gt;&lt;/p&gt;&lt;p style=&quot;margin: 0px ; margin-left: 4px&quot;&gt;+ 宣布放假():&amp;nbsp;&lt;span&gt;Date&amp;nbsp;&lt;/span&gt;&lt;/p&gt;" style="verticalAlign=top;align=left;overflow=fill;fontSize=12;fontFamily=Helvetica;html=1;" vertex="1" parent="1">
          <mxGeometry x="447" y="215" width="170" height="325" as="geometry" />
        </mxCell>
        <mxCell id="LX06uXPOczmbumngmtLN-44" style="edgeStyle=none;html=1;entryX=0.465;entryY=1.017;entryDx=0;entryDy=0;entryPerimeter=0;exitX=0.5;exitY=0;exitDx=0;exitDy=0;" edge="1" parent="1" source="LX06uXPOczmbumngmtLN-45" target="LX06uXPOczmbumngmtLN-41">
          <mxGeometry relative="1" as="geometry" />
        </mxCell>
        <mxCell id="LX06uXPOczmbumngmtLN-45" value="&lt;p style=&quot;margin: 0px ; margin-top: 4px ; text-align: center&quot;&gt;&lt;b&gt;Student&lt;/b&gt;&lt;/p&gt;&lt;hr size=&quot;1&quot;&gt;&lt;p style=&quot;margin: 0px ; margin-left: 4px&quot;&gt;- name: string&lt;/p&gt;&lt;p style=&quot;margin: 0px ; margin-left: 4px&quot;&gt;&lt;br&gt;&lt;/p&gt;&lt;p style=&quot;margin: 0px ; margin-left: 4px&quot;&gt;- ID: int&lt;/p&gt;&lt;p style=&quot;margin: 0px ; margin-left: 4px&quot;&gt;&lt;br&gt;&lt;/p&gt;&lt;p style=&quot;margin: 0px ; margin-left: 4px&quot;&gt;&lt;u&gt;- 學生總數Count: int&lt;/u&gt;&lt;/p&gt;&lt;br&gt;&amp;nbsp;- 個人收藏: object[]&lt;br&gt;&lt;hr size=&quot;1&quot;&gt;&lt;p style=&quot;margin: 0px 0px 0px 4px&quot;&gt;+ getName(): string&lt;/p&gt;&lt;div&gt;&lt;br&gt;&lt;/div&gt;&lt;p style=&quot;margin: 0px ; margin-left: 4px&quot;&gt;+ greet(): void&lt;/p&gt;&lt;p style=&quot;margin: 0px ; margin-left: 4px&quot;&gt;&lt;br&gt;&lt;/p&gt;&lt;p style=&quot;margin: 0px ; margin-left: 4px&quot;&gt;+ greet(問候語: string): void&lt;/p&gt;&lt;p style=&quot;margin: 0px ; margin-left: 4px&quot;&gt;&lt;br&gt;&lt;/p&gt;&lt;p style=&quot;margin: 0px ; margin-left: 4px&quot;&gt;+ get有沒有料(): boolean&lt;/p&gt;&lt;p style=&quot;margin: 0px ; margin-left: 4px&quot;&gt;&lt;br&gt;&lt;/p&gt;&lt;p style=&quot;margin: 0px ; margin-left: 4px&quot;&gt;+ 被點名(): void&lt;/p&gt;&lt;p style=&quot;margin: 0px ; margin-left: 4px&quot;&gt;&lt;br&gt;&lt;/p&gt;&lt;p style=&quot;margin: 0px ; margin-left: 4px&quot;&gt;&amp;nbsp;- 翹課(): void&lt;/p&gt;&lt;p style=&quot;margin: 0px ; margin-left: 4px&quot;&gt;&lt;u&gt;&lt;br&gt;&lt;/u&gt;&lt;/p&gt;&lt;p style=&quot;margin: 0px ; margin-left: 4px&quot;&gt;&lt;u&gt;+ getStudentCount(): int&amp;nbsp; &amp;nbsp;&lt;/u&gt;&lt;br&gt;&lt;/p&gt;&lt;p style=&quot;margin: 0px ; margin-left: 4px&quot;&gt;&lt;u&gt;&lt;br&gt;&lt;/u&gt;&lt;/p&gt;&lt;p style=&quot;margin: 0px ; margin-left: 4px&quot;&gt;&lt;u&gt;&lt;br&gt;&lt;/u&gt;&lt;/p&gt;" style="verticalAlign=top;align=left;overflow=fill;fontSize=12;fontFamily=Helvetica;html=1;" vertex="1" parent="1">
          <mxGeometry x="647" y="370" width="163" height="350" as="geometry" />
        </mxCell>
        <mxCell id="LX06uXPOczmbumngmtLN-46" value="«interface»&#xa;知識承載物" style="swimlane;fontStyle=1;align=center;verticalAlign=top;childLayout=stackLayout;horizontal=1;startSize=50;horizontalStack=0;resizeParent=1;resizeParentMax=0;resizeLast=0;collapsible=1;marginBottom=0;" vertex="1" parent="1">
          <mxGeometry x="57" y="190" width="160" height="130" as="geometry" />
        </mxCell>
        <mxCell id="LX06uXPOczmbumngmtLN-47" value="" style="line;strokeWidth=1;fillColor=none;align=left;verticalAlign=middle;spacingTop=-1;spacingLeft=3;spacingRight=3;rotatable=0;labelPosition=right;points=[];portConstraint=eastwest;" vertex="1" parent="LX06uXPOczmbumngmtLN-46">
          <mxGeometry y="50" width="160" height="10" as="geometry" />
        </mxCell>
        <mxCell id="LX06uXPOczmbumngmtLN-48" value="+ getData(): string[]&#xa;&#xa;+ 寫入(string[]): boolean&#xa;&#xa;&#xa;" style="text;strokeColor=none;fillColor=none;align=left;verticalAlign=top;spacingLeft=4;spacingRight=4;overflow=hidden;rotatable=0;points=[[0,0.5],[1,0.5]];portConstraint=eastwest;" vertex="1" parent="LX06uXPOczmbumngmtLN-46">
          <mxGeometry y="60" width="160" height="70" as="geometry" />
        </mxCell>
        <mxCell id="LX06uXPOczmbumngmtLN-49" style="edgeStyle=none;html=1;dashed=1;endArrow=block;endFill=0;" edge="1" parent="1" source="LX06uXPOczmbumngmtLN-50" target="LX06uXPOczmbumngmtLN-46">
          <mxGeometry relative="1" as="geometry" />
        </mxCell>
        <mxCell id="LX06uXPOczmbumngmtLN-50" value="黑板" style="swimlane;fontStyle=1;align=center;verticalAlign=top;childLayout=stackLayout;horizontal=1;startSize=26;horizontalStack=0;resizeParent=1;resizeParentMax=0;resizeLast=0;collapsible=1;marginBottom=0;" vertex="1" parent="1">
          <mxGeometry x="177" y="400" width="150" height="170" as="geometry" />
        </mxCell>
        <mxCell id="LX06uXPOczmbumngmtLN-51" value="- name: string&#xa;&#xa;- data: string[]" style="text;strokeColor=none;fillColor=none;align=left;verticalAlign=top;spacingLeft=4;spacingRight=4;overflow=hidden;rotatable=0;points=[[0,0.5],[1,0.5]];portConstraint=eastwest;" vertex="1" parent="LX06uXPOczmbumngmtLN-50">
          <mxGeometry y="26" width="150" height="54" as="geometry" />
        </mxCell>
        <mxCell id="LX06uXPOczmbumngmtLN-52" value="" style="line;strokeWidth=1;fillColor=none;align=left;verticalAlign=middle;spacingTop=-1;spacingLeft=3;spacingRight=3;rotatable=0;labelPosition=right;points=[];portConstraint=eastwest;" vertex="1" parent="LX06uXPOczmbumngmtLN-50">
          <mxGeometry y="80" width="150" height="8" as="geometry" />
        </mxCell>
        <mxCell id="LX06uXPOczmbumngmtLN-53" value="+ getData(): string[]&#xa;&#xa;+ 寫入(string[]): boolean&#xa;&#xa;+ 清除(index: int): boolean" style="text;strokeColor=none;fillColor=none;align=left;verticalAlign=top;spacingLeft=4;spacingRight=4;overflow=hidden;rotatable=0;points=[[0,0.5],[1,0.5]];portConstraint=eastwest;" vertex="1" parent="LX06uXPOczmbumngmtLN-50">
          <mxGeometry y="88" width="150" height="82" as="geometry" />
        </mxCell>
        <mxCell id="LX06uXPOczmbumngmtLN-54" style="edgeStyle=none;html=1;entryX=0.502;entryY=0.993;entryDx=0;entryDy=0;entryPerimeter=0;dashed=1;startArrow=none;startFill=0;endArrow=block;endFill=0;" edge="1" parent="1" source="LX06uXPOczmbumngmtLN-55" target="LX06uXPOczmbumngmtLN-48">
          <mxGeometry relative="1" as="geometry" />
        </mxCell>
        <mxCell id="LX06uXPOczmbumngmtLN-55" value="白紙" style="swimlane;fontStyle=1;align=center;verticalAlign=top;childLayout=stackLayout;horizontal=1;startSize=26;horizontalStack=0;resizeParent=1;resizeParentMax=0;resizeLast=0;collapsible=1;marginBottom=0;" vertex="1" parent="1">
          <mxGeometry x="7" y="400" width="130" height="180" as="geometry" />
        </mxCell>
        <mxCell id="LX06uXPOczmbumngmtLN-56" value="- name: string&#xa;&#xa;- data: string[]" style="text;strokeColor=none;fillColor=none;align=left;verticalAlign=top;spacingLeft=4;spacingRight=4;overflow=hidden;rotatable=0;points=[[0,0.5],[1,0.5]];portConstraint=eastwest;" vertex="1" parent="LX06uXPOczmbumngmtLN-55">
          <mxGeometry y="26" width="130" height="54" as="geometry" />
        </mxCell>
        <mxCell id="LX06uXPOczmbumngmtLN-57" value="" style="line;strokeWidth=1;fillColor=none;align=left;verticalAlign=middle;spacingTop=-1;spacingLeft=3;spacingRight=3;rotatable=0;labelPosition=right;points=[];portConstraint=eastwest;" vertex="1" parent="LX06uXPOczmbumngmtLN-55">
          <mxGeometry y="80" width="130" height="8" as="geometry" />
        </mxCell>
        <mxCell id="LX06uXPOczmbumngmtLN-58" value="+ getData(): string[]&#xa;&#xa;+ 寫入(string[]): boolean&#xa;&#xa;+ 折成紙飛機(): void" style="text;strokeColor=none;fillColor=none;align=left;verticalAlign=top;spacingLeft=4;spacingRight=4;overflow=hidden;rotatable=0;points=[[0,0.5],[1,0.5]];portConstraint=eastwest;" vertex="1" parent="LX06uXPOczmbumngmtLN-55">
          <mxGeometry y="88" width="130" height="92" as="geometry" />
        </mxCell>
        <mxCell id="LX06uXPOczmbumngmtLN-59" value="" style="endArrow=open;html=1;dashed=1;exitX=0.001;exitY=0.825;exitDx=0;exitDy=0;exitPerimeter=0;entryX=1;entryY=0.5;entryDx=0;entryDy=0;endFill=0;" edge="1" parent="1" source="LX06uXPOczmbumngmtLN-43" target="LX06uXPOczmbumngmtLN-53">
          <mxGeometry width="50" height="50" relative="1" as="geometry">
            <mxPoint x="437" y="280" as="sourcePoint" />
            <mxPoint x="337" y="370" as="targetPoint" />
            <Array as="points" />
          </mxGeometry>
        </mxCell>
        <mxCell id="LX06uXPOczmbumngmtLN-60" value="依賴&lt;br&gt;dependency&lt;br&gt;&lt;font color=&quot;#a1a1a1&quot;&gt;&quot; A uses a B&quot;&lt;/font&gt;" style="text;html=1;strokeColor=none;fillColor=none;align=center;verticalAlign=middle;whiteSpace=wrap;rounded=0;" vertex="1" parent="1">
          <mxGeometry x="327" y="515" width="140" height="10" as="geometry" />
        </mxCell>
        <mxCell id="LX06uXPOczmbumngmtLN-61" value="實現 / 實作&lt;br&gt;Realization / Implementation" style="text;html=1;strokeColor=none;fillColor=none;align=center;verticalAlign=middle;whiteSpace=wrap;rounded=0;" vertex="1" parent="1">
          <mxGeometry x="57" y="350" width="200" height="20" as="geometry" />
        </mxCell>
        <mxCell id="LX06uXPOczmbumngmtLN-62" style="edgeStyle=none;curved=1;html=1;entryX=0.589;entryY=1.012;entryDx=0;entryDy=0;entryPerimeter=0;dashed=1;startArrow=none;startFill=0;endArrow=open;endFill=0;" edge="1" parent="1" source="LX06uXPOczmbumngmtLN-64" target="LX06uXPOczmbumngmtLN-48">
          <mxGeometry relative="1" as="geometry" />
        </mxCell>
        <mxCell id="LX06uXPOczmbumngmtLN-63" style="edgeStyle=none;curved=1;html=1;startArrow=none;startFill=0;endArrow=diamondThin;endFill=0;endSize=12;startSize=9;entryX=0.01;entryY=0.65;entryDx=0;entryDy=0;entryPerimeter=0;" edge="1" parent="1" source="LX06uXPOczmbumngmtLN-64" target="LX06uXPOczmbumngmtLN-45">
          <mxGeometry relative="1" as="geometry">
            <mxPoint x="647" y="520" as="targetPoint" />
          </mxGeometry>
        </mxCell>
        <mxCell id="LX06uXPOczmbumngmtLN-64" value="CD" style="swimlane;fontStyle=1;align=center;verticalAlign=top;childLayout=stackLayout;horizontal=1;startSize=26;horizontalStack=0;resizeParent=1;resizeParentMax=0;resizeLast=0;collapsible=1;marginBottom=0;" vertex="1" parent="1">
          <mxGeometry x="72" y="650" width="170" height="180" as="geometry" />
        </mxCell>
        <mxCell id="LX06uXPOczmbumngmtLN-65" value="- name: string&#xa;&#xa;- data: AudioInputStream&#xa;" style="text;strokeColor=none;fillColor=none;align=left;verticalAlign=top;spacingLeft=4;spacingRight=4;overflow=hidden;rotatable=0;points=[[0,0.5],[1,0.5]];portConstraint=eastwest;" vertex="1" parent="LX06uXPOczmbumngmtLN-64">
          <mxGeometry y="26" width="170" height="54" as="geometry" />
        </mxCell>
        <mxCell id="LX06uXPOczmbumngmtLN-66" value="" style="line;strokeWidth=1;fillColor=none;align=left;verticalAlign=middle;spacingTop=-1;spacingLeft=3;spacingRight=3;rotatable=0;labelPosition=right;points=[];portConstraint=eastwest;" vertex="1" parent="LX06uXPOczmbumngmtLN-64">
          <mxGeometry y="80" width="170" height="8" as="geometry" />
        </mxCell>
        <mxCell id="LX06uXPOczmbumngmtLN-67" value="+ getData(): string[]&#xa;&#xa;+ 寫入(string[]): boolean&#xa;&#xa;+ 演唱會門票抽選(): boolean" style="text;strokeColor=none;fillColor=none;align=left;verticalAlign=top;spacingLeft=4;spacingRight=4;overflow=hidden;rotatable=0;points=[[0,0.5],[1,0.5]];portConstraint=eastwest;" vertex="1" parent="LX06uXPOczmbumngmtLN-64">
          <mxGeometry y="88" width="170" height="92" as="geometry" />
        </mxCell>
        <mxCell id="LX06uXPOczmbumngmtLN-68" value="聚合&lt;br&gt;Aggregate&lt;br&gt;&lt;br&gt;&lt;font color=&quot;#8f8f8f&quot;&gt;是「弱」的包含（&quot; ... owns a ...&quot; ）關係&lt;/font&gt;" style="text;html=1;strokeColor=none;fillColor=none;align=center;verticalAlign=middle;whiteSpace=wrap;rounded=0;" vertex="1" parent="1">
          <mxGeometry x="317" y="610" width="230" height="80" as="geometry" />
        </mxCell>
        <mxCell id="LX06uXPOczmbumngmtLN-69" value="一般化 / 泛化&lt;br&gt;Generalization&amp;nbsp;&lt;br&gt;&lt;font color=&quot;#666666&quot;&gt;箭頭指向 父類別(最一般化的那個 / 被繼承的那個)&lt;br&gt;&lt;br&gt;例如:學生 —繼承-▷&amp;nbsp;普通人&lt;/font&gt;" style="text;html=1;strokeColor=none;fillColor=none;align=center;verticalAlign=middle;whiteSpace=wrap;rounded=0;" vertex="1" parent="1">
          <mxGeometry x="537" y="160" width="290" height="50" as="geometry" />
        </mxCell>
        <mxCell id="LX06uXPOczmbumngmtLN-70" value="&lt;font&gt;讀取&lt;/font&gt;" style="text;html=1;strokeColor=none;fillColor=none;align=center;verticalAlign=middle;whiteSpace=wrap;rounded=0;fontColor=#A1A1A1;" vertex="1" parent="1">
          <mxGeometry x="72" y="245" width="40" height="20" as="geometry" />
        </mxCell>
        <mxCell id="LX06uXPOczmbumngmtLN-71" value="&lt;font&gt;讀取&lt;/font&gt;" style="text;html=1;strokeColor=none;fillColor=none;align=center;verticalAlign=middle;whiteSpace=wrap;rounded=0;fontColor=#A3A3A3;" vertex="1" parent="1">
          <mxGeometry x="23" y="481" width="40" height="20" as="geometry" />
        </mxCell>
        <mxCell id="LX06uXPOczmbumngmtLN-72" value="&lt;font&gt;讀取&lt;/font&gt;" style="text;html=1;strokeColor=none;fillColor=none;align=center;verticalAlign=middle;whiteSpace=wrap;rounded=0;fontColor=#BFBFBF;" vertex="1" parent="1">
          <mxGeometry x="194" y="481" width="40" height="20" as="geometry" />
        </mxCell>
        <mxCell id="LX06uXPOczmbumngmtLN-73" value="&lt;font&gt;讀取&lt;/font&gt;" style="text;html=1;strokeColor=none;fillColor=none;align=center;verticalAlign=middle;whiteSpace=wrap;rounded=0;fontColor=#B8B8B8;" vertex="1" parent="1">
          <mxGeometry x="90" y="731" width="40" height="20" as="geometry" />
        </mxCell>
      </root>
    </mxGraphModel>
  </diagram>
</mxfile>
